<svg xmlns="http://www.w3.org/2000/svg" xml:space="preserve" width="1500" height="1500" data-id="lg_2oyGfNf8GdG2BWMD6W" data-version="1" viewBox="0 0 1500 1500"><path fill="#fff" stroke="transparent" d="M0 0h1500v1500H0z"/><g data-padding="20"><g transform="translate(-571.429 -569.286)scale(1.71429)"><path fill="#0052de" d="M534.443 939.072c-.956 0-1.855-.73-2.53-1.405a3.93 3.93 0 0 1-1.067-2.81c.112-3.653 2.64-89.75 20.4-113.018 11.578-15.174 33.215-26.133 42.432-30.236L521.46 694.94a3.597 3.597 0 0 1 2.529-5.732l68.339-5.62c-13.994-10.453-39.677-32.428-34.9-49.68 6.07-22.312 28.324-29.113 47.938-35.07 11.97-3.597 23.323-7.08 27.482-13.488 4.946-7.643 6.407-23.267 7.756-38.44 2.135-23.436 4.327-47.658 19.557-54.12q7.644-3.26 18.829-3.26c20.794 0 47.826 8.542 69.632 15.398 13.825 4.384 25.852 8.15 33.327 8.992q2.36.281 5.058.281c8.26 0 16.86-1.91 25.852-3.934 9.216-2.08 18.658-4.215 27.93-4.215q13.995 0 24.504 6.744c11.128 7.081 13.095 26.976 14.95 46.31 1.573 15.341 3.09 31.246 9.16 35.967 4.384 3.484 12.027 4.777 20.176 6.07 13.994 2.247 31.36 5.114 41.307 21.018q11.577 18.771 6.63 35.125a41.6 41.6 0 0 1-13.824 19.67l58.617 1.124a3.54 3.54 0 0 1 2.754 5.845l-72.78 91.381c13.938 1.461 45.242 7.868 66.429 35.35 17.815 22.93 22.03 93.46 22.199 96.44a3.37 3.37 0 0 1-.9 2.584c-.617.731-1.517 1.574-2.472 1.574l-482.928 27.82Zm-3.373-243.234 71.037 95.035a3.597 3.597 0 0 1-1.574 5.507c-.281.113-30.18 12.14-43.611 29.674-14.275 18.883-18.04 87.728-18.771 104.925l475.396-26.976c-1.124-14.724-6.182-70.53-20.457-88.964-25.29-32.653-67.44-33.046-67.89-33.046a3.597 3.597 0 0 1-2.81-5.845l72.498-91.044-63.056-1.236a3.597 3.597 0 0 1-1.405-6.857c.169-.056 15.905-7.306 20.232-21.86q4.046-13.152-5.901-29.225c-8.15-13.15-22.48-15.455-36.361-17.76-8.992-1.46-17.591-2.81-23.436-7.474-8.43-6.632-10.116-23.267-11.802-40.914-1.686-16.747-3.54-35.743-11.746-41.026a37.1 37.1 0 0 0-20.681-5.62c-8.43 0-17.535 2.08-26.246 4.047-9.104 2.023-18.433 4.158-27.538 4.158q-3.034 0-5.788-.337c-8.262-.899-20.513-4.777-34.732-9.273-21.3-6.744-47.77-15.06-67.44-15.06q-9.722 0-16.017 2.696c-11.296 4.777-13.375 27.82-15.23 48.164-1.574 16.747-2.98 32.596-8.936 41.756-5.62 8.543-18.096 12.364-31.36 16.41-18.714 5.677-38.103 11.578-43.161 30.068-3.54 12.982 22.705 36.08 40.07 47.545a3.597 3.597 0 0 1-1.685 6.575Z"/><path fill="#0052de" d="M778.35 785.758c-35.461 7.42-46.476-22.255-52.94-37.092-2.472-5.507-3.652-28.774 2.417-28.212 29.899 2.81 77.78-1.799 97.788-5.058 30.685-4.833-8.542 62.27-47.208 70.362m-118.638-18.096c28.943 11.577 42.824-11.802 50.355-23.492 3.54-5.507 7.812-24.39 2.585-24.84-25.683-2.08-65.98-13.432-82.501-19.108-25.178-8.71-1.967 54.795 29.56 67.44m-7.923-148.368c32.258 18.77 126.674 35.743 202.6 3.934 31.697-13.207 28.944 2.53 10.96 10.96-89.64 41.924-181.302 17.983-221.54-3.766-19.952-10.79-7.925-20.345 7.98-11.128"/><rect width="311.178" height="270.07" x="301.086" y="294.306" fill="none" rx="0" ry="0" transform="translate(243.61 406.25)scale(1.14)"/><path fill="#0052de" d="M774.29 980.928h-44.55l-14.13-46.41h-71.09l-14.13 46.41h-44.55l68.82-195.78h50.54Zm-119.37-81.08h50.82l-14.14-45.35q-1.33-4.53-3.53-11.67-2.2-7.13-4.41-14.53-2.2-7.41-3.53-12.87-1.33 5.46-3.67 13.53-2.33 8.07-4.46 15.27-2.14 7.2-3.07 10.27Zm259 26.94q0 17.33-8.4 30.14-8.4 12.8-24.47 19.73-16.08 6.94-39.01 6.94-10.14 0-19.81-1.33-9.67-1.34-18.54-3.94t-16.87-6.47v-38.41q13.87 6.14 28.81 11.07 14.94 4.94 29.61 4.94 10.13 0 16.33-2.67 6.21-2.67 9.01-7.33 2.8-4.67 2.8-10.67 0-7.34-4.94-12.54-4.93-5.2-13.53-9.74-8.61-4.53-19.41-9.73-6.8-3.2-14.8-7.8t-15.21-11.27q-7.2-6.67-11.8-16.21-4.6-9.53-4.6-22.87 0-17.47 8-29.87 8-12.41 22.87-19.01t35.15-6.6q15.2 0 29 3.54 13.81 3.53 28.88 10.2l-13.34 32.14q-13.47-5.47-24.14-8.47t-21.74-3q-7.73 0-13.2 2.47-5.47 2.46-8.27 6.93t-2.8 10.34q0 6.93 4.07 11.67 4.06 4.73 12.27 9.13 8.2 4.4 20.47 10.27 14.94 7.07 25.54 14.74t16.34 18q5.73 10.34 5.73 25.68"/></g><path fill="transparent" stroke="transparent" stroke-width="1.786" d="M303.571 250h892.858v1000H303.57z"/></g></svg>