<svg xmlns="http://www.w3.org/2000/svg" xml:space="preserve" width="1500" height="184" data-id="lg_cuKaFN8edO2W4cawy4" data-version="1" viewBox="0 0 1500 184"><g data-padding="20"><g transform="translate(10 3.297)scale(.96416)"><rect width="581.406" height="123.17" x="216.619" y="-61.781" fill="none" rx="0" ry="0" transform="matrix(.96 0 0 .96 280.48 125.24)"/><path fill="#1e1e1e" d="m502.13 157.552 11.97-73.49h15.64l11.97 73.49h-11.55l-2.1-14.6v.21h-13.12l-2.1 14.39Zm14.18-24.36h10.39l-5.14-36.33h-.21Zm30.97 24.36v-73.49h14.49l11.23 43.99h.21v-43.99h10.29v73.49h-11.87l-13.85-53.65h-.21v53.65Zm61.52 1.05q-8.5 0-13.02-4.83-4.51-4.83-4.51-13.65v-38.64q0-8.82 4.51-13.64 4.52-4.83 13.02-4.83t13.02 4.83q4.51 4.82 4.51 13.64v38.64q0 8.82-4.51 13.65-4.52 4.83-13.02 4.83m0-10.5q5.98 0 5.98-7.25v-40.1q0-7.25-5.98-7.25t-5.98 7.25v40.1q0 7.25 5.98 7.25m25.3 9.45v-73.49h14.49l11.23 43.99h.21v-43.99h10.29v73.49h-11.86l-13.86-53.65h-.21v53.65Zm55.43 0v-31.29l-13.96-42.2h12.28l7.88 26.98h.21l7.87-26.98h11.24l-13.97 42.2v31.29Zm30.77 0v-73.49h16.48l7.35 52.59h.21l7.35-52.59h16.48v73.49h-10.92v-55.65h-.21l-8.4 55.65h-9.66l-8.4-55.65h-.21v55.65Zm88.29 1.05q-8.4 0-12.7-4.78-4.31-4.78-4.31-13.7v-4.2h10.92v5.04q0 7.14 5.98 7.14 2.94 0 4.47-1.73 1.52-1.74 1.52-5.62 0-4.62-2.1-8.14-2.1-3.51-7.77-8.45-7.14-6.3-9.97-11.39-2.84-5.09-2.84-11.5 0-8.71 4.41-13.49 4.41-4.77 12.81-4.77 8.29 0 12.55 4.77 4.25 4.78 4.25 13.7v3.05h-10.92v-3.78q0-3.78-1.47-5.51-1.47-1.74-4.31-1.74-5.77 0-5.77 7.04 0 3.99 2.15 7.45 2.15 3.47 7.82 8.4 7.25 6.3 9.98 11.45 2.73 5.14 2.73 12.07 0 9.03-4.46 13.86-4.47 4.83-12.97 4.83m24.03-1.05v-73.49h11.55v29.92h12.39v-29.92h11.55v73.49h-11.55v-33.07h-12.39v33.07Zm41.06 0 11.97-73.49h15.64l11.97 73.49h-11.55l-2.1-14.6v.21h-13.12l-2.1 14.39Zm14.17-24.36h10.4l-5.15-36.33h-.21Zm30.97 24.36v-73.49h17.11q8.92 0 13.02 4.14 4.09 4.15 4.09 12.76v4.51q0 11.45-7.56 14.49v.21q4.2 1.26 5.93 5.15 1.74 3.88 1.74 10.39v12.91q0 3.15.21 5.09.21 1.95 1.05 3.84h-11.76q-.63-1.79-.84-3.36-.21-1.58-.21-5.67v-13.44q0-5.04-1.63-7.03-1.63-2-5.62-2h-3.99v31.5Zm11.54-42h4.2q3.47 0 5.2-1.78 1.73-1.79 1.73-5.99v-5.67q0-3.99-1.41-5.77-1.42-1.79-4.47-1.79h-5.25Zm30.77 42v-73.49h31.49v10.49h-19.95v19.43h15.86v10.5h-15.86v22.57h19.95v10.5Zm53.13 1.05q-8.4 0-12.7-4.78-4.31-4.78-4.31-13.7v-4.2h10.92v5.04q0 7.14 5.98 7.14 2.94 0 4.47-1.73 1.52-1.74 1.52-5.62 0-4.62-2.1-8.14-2.1-3.51-7.77-8.45-7.14-6.3-9.97-11.39-2.84-5.09-2.84-11.5 0-8.71 4.41-13.49 4.41-4.77 12.81-4.77 8.29 0 12.54 4.77 4.26 4.78 4.26 13.7v3.05h-10.92v-3.78q0-3.78-1.47-5.51-1.47-1.74-4.31-1.74-5.77 0-5.77 7.04 0 3.99 2.15 7.45 2.15 3.47 7.82 8.4 7.25 6.3 9.98 11.45 2.73 5.14 2.73 12.07 0 9.03-4.47 13.86-4.46 4.83-12.96 4.83"/><g stroke="#0052de" stroke-width="5" transform="matrix(.91 0 0 .91 278.95 31.47)"><path d="M236.613-.207h597.168"/>undefined
        undefined</g><rect width="100" height="47.16" x="485.197" y="-23.787" fill="#fff" rx="0" ry="0" transform="matrix(.91 0 0 .91 280.18 31.39)"/><path fill="#0052de" d="M732.438 61.419c-.13 0-.254-.1-.347-.192a.54.54 0 0 1-.146-.386c.015-.5.362-12.296 2.795-15.484 1.586-2.08 4.55-3.58 5.814-4.143L730.66 27.97a.493.493 0 0 1 .347-.785l9.363-.77c-1.918-1.432-5.436-4.443-4.782-6.807.832-3.057 3.88-3.99 6.568-4.805 1.64-.493 3.196-.97 3.765-1.848.678-1.047.878-3.188 1.063-5.267.293-3.21.593-6.53 2.68-7.415q1.047-.446 2.58-.446c2.848 0 6.552 1.17 9.54 2.11 1.894.6 3.541 1.116 4.566 1.232q.323.038.693.038c1.131 0 2.31-.262 3.542-.54 1.262-.284 2.556-.576 3.826-.576q1.918 0 3.358.924c1.524.97 1.794 3.696 2.048 6.344.215 2.102.423 4.282 1.255 4.928.6.478 1.648.655 2.764.832 1.918.308 4.297.7 5.66 2.88q1.586 2.572.908 4.812a5.7 5.7 0 0 1-1.894 2.695l8.031.154a.485.485 0 0 1 .378.8l-9.972 12.52c1.91.2 6.2 1.079 9.102 4.845 2.44 3.14 3.018 12.805 3.041 13.213a.46.46 0 0 1-.123.354c-.085.1-.208.216-.339.216l-66.166 3.81Zm-.462-33.326 9.733 13.02a.493.493 0 0 1-.216.756c-.039.015-4.135 1.663-5.975 4.065-1.956 2.588-2.472 12.02-2.572 14.376l65.134-3.696c-.154-2.017-.847-9.663-2.803-12.19-3.465-4.473-9.24-4.526-9.3-4.526a.493.493 0 0 1-.386-.801l9.933-12.474-8.64-.17a.493.493 0 0 1-.192-.94c.023-.007 2.18-1 2.772-2.994q.554-1.802-.809-4.004c-1.116-1.802-3.08-2.118-4.98-2.434-1.233-.2-2.41-.385-3.212-1.024-1.155-.908-1.386-3.187-1.617-5.605-.23-2.295-.485-4.897-1.61-5.621a5.1 5.1 0 0 0-2.833-.77c-1.155 0-2.403.285-3.596.554-1.248.277-2.526.57-3.773.57q-.416 0-.793-.046c-1.132-.123-2.81-.655-4.759-1.27-2.918-.925-6.545-2.064-9.24-2.064q-1.332 0-2.194.37c-1.548.654-1.833 3.81-2.087 6.598-.216 2.295-.408 4.466-1.224 5.72-.77 1.17-2.48 1.695-4.297 2.25-2.564.777-5.22 1.586-5.914 4.12-.485 1.778 3.111 4.943 5.49 6.513a.493.493 0 0 1-.23.9Z"/><path fill="#0052de" d="M765.856 40.414c-4.86 1.016-6.368-3.05-7.254-5.082-.339-.755-.5-3.943.331-3.866 4.097.385 10.657-.246 13.398-.693 4.204-.662-1.17 8.532-6.468 9.64m-16.254-2.48c3.965 1.587 5.867-1.616 6.9-3.218.484-.754 1.07-3.341.353-3.403-3.519-.285-9.04-1.84-11.303-2.618-3.45-1.194-.27 7.507 4.05 9.24m-1.086-20.328c4.42 2.572 17.356 4.897 27.76.539 4.341-1.81 3.964.347 1.5 1.502-12.28 5.744-24.84 2.464-30.353-.516-2.734-1.48-1.086-2.788 1.093-1.525"/></g><path fill="transparent" stroke="transparent" d="M471 0h558v184H471z"/></g></svg>